<?xml version="1.0" encoding="UTF-8" standalone="no"?>
<!-- Created with Inkscape (http://www.inkscape.org/) -->

<svg
   xmlns:dc="http://purl.org/dc/elements/1.1/"
   xmlns:cc="http://creativecommons.org/ns#"
   xmlns:rdf="http://www.w3.org/1999/02/22-rdf-syntax-ns#"
   xmlns:svg="http://www.w3.org/2000/svg"
   xmlns="http://www.w3.org/2000/svg"
   xmlns:sodipodi="http://sodipodi.sourceforge.net/DTD/sodipodi-0.dtd"
   xmlns:inkscape="http://www.inkscape.org/namespaces/inkscape"
   width="26.45833mm"
   height="26.45833mm"
   viewBox="0 0 26.45833 26.45833"
   version="1.1"
   id="svg1121"
   inkscape:version="0.92.3 (2405546, 2018-03-11)"
   sodipodi:docname="north_arrow_tan.svg">
  <defs
     id="defs1115">
    <linearGradient
       inkscape:collect="always"
       x1="-820.56"
       y1="99.780998"
       gradientTransform="translate(-211.63,-82.751)"
       x2="-441.44"
       gradientUnits="userSpaceOnUse"
       y2="456.35999"
       id="linearGradient3502">
      <stop
         offset="0"
         style="stop-color:#405c9c"
         id="stop4132" />
      <stop
         offset="1"
         style="stop-color:#4c7ff4"
         id="stop4134" />
    </linearGradient>
    <linearGradient
       inkscape:collect="always"
       x1="-810.47998"
       y1="326.57999"
       gradientTransform="translate(90.375,-1.131)"
       x2="-408.28"
       gradientUnits="userSpaceOnUse"
       y2="-52.910999"
       id="linearGradient3504">
      <stop
         offset="0"
         style="stop-color:#4c7ff4"
         id="stop4124" />
      <stop
         offset="1"
         style="stop-color:#4c7ff4;stop-opacity:0"
         id="stop4126" />
    </linearGradient>
    <radialGradient
       inkscape:collect="always"
       r="302.42999"
       gradientTransform="translate(63.023,64.785)"
       cx="194.28999"
       cy="355.22"
       gradientUnits="userSpaceOnUse"
       id="radialGradient3506">
      <stop
         offset="0"
         style="stop-color:#2a4fd4"
         id="stop4150" />
      <stop
         offset="1"
         style="stop-color:#8296e0"
         id="stop4152" />
    </radialGradient>
  </defs>
  <sodipodi:namedview
     id="base"
     pagecolor="#ffffff"
     bordercolor="#666666"
     borderopacity="1.0"
     inkscape:pageopacity="0.0"
     inkscape:pageshadow="2"
     inkscape:zoom="2.8"
     inkscape:cx="110.21758"
     inkscape:cy="-33.251749"
     inkscape:document-units="mm"
     inkscape:current-layer="layer1"
     showgrid="false"
     fit-margin-top="0"
     fit-margin-left="0"
     fit-margin-right="0"
     fit-margin-bottom="0"
     inkscape:window-width="2560"
     inkscape:window-height="1391"
     inkscape:window-x="0"
     inkscape:window-y="25"
     inkscape:window-maximized="1" />
  <metadata
     id="metadata1118">
    <rdf:RDF>
      <cc:Work
         rdf:about="">
        <dc:format>image/svg+xml</dc:format>
        <dc:type
           rdf:resource="http://purl.org/dc/dcmitype/StillImage" />
        <dc:title></dc:title>
      </cc:Work>
    </rdf:RDF>
  </metadata>
  <g
     inkscape:label="Layer 1"
     inkscape:groupmode="layer"
     id="layer1"
     transform="translate(-244.55059,-220.72398)">
    <g
       style="font-weight:bold;font-size:26.43000031px;font-family:Verdana;overflow:hidden;fill:#000000;fill-opacity:1;stroke:#000000;stroke-width:2;text-rendering:optimizeLegibility"
       id="g3488"
       transform="matrix(0.04374223,0,0,0.04374223,241.79391,217.89015)">
      <g
         id="g4160"
         inkscape:export-ydpi="149.98282"
         inkscape:export-xdpi="149.98282"
         transform="translate(167.29,19.857)">
        <g
           id="g4140"
           transform="matrix(0.70711,0.70711,-0.70711,0.70711,1003.9,904.89)">
          <path
             inkscape:connector-curvature="0"
             id="path3141"
             style="fill:url(#linearGradient3502)"
             d="m -961.88,15.784 c -0.02,0 -41.72,118.83 -41.82,118.85 0,0.02 -118.9,41.6 -118.9,41.62 0,0 4.9,1.72 5.4,1.88 h 154.26 v 156.5 c 0.03,0.09 0.81,2.31 0.81,2.31 0.03,0 41.77,-118.83 41.79,-118.84 0.01,-0.02 118.9,-41.57 118.9,-41.6 0,0 -5.75,-2.02 -6.4,-2.25 H -960.69 V 19.194 c -0.06,-0.189 -1.18,-3.406 -1.19,-3.406 z" />
          <path
             id="path3147"
             style="fill:url(#linearGradient3504);stroke:#121217;stroke-width:5"
             sodipodi:type="star"
             sodipodi:sides="4"
             sodipodi:r1="160.57379"
             sodipodi:r2="58.957184"
             sodipodi:arg1="1.5452947"
             sodipodi:arg2="2.3306929"
             transform="matrix(0.99965,0.026294,-0.026294,0.99965,-418.28,118.28)"
             inkscape:randomized="0"
             sodipodi:cy="72.362183"
             sodipodi:cx="-542"
             inkscape:rounded="0.00020522979"
             inkscape:flatsided="false"
             d="m -537.90555,232.88376 c -0.0259,6.6e-4 -44.68816,-117.76528 -44.7069,-117.78309 -0.0187,-0.0178 -119.90847,-38.618191 -119.90913,-38.644038 -6.6e-4,-0.02585 117.76528,-44.688155 117.78309,-44.706898 0.0178,-0.01874 38.61819,-119.908473 38.64404,-119.909133 0.0259,-6.59e-4 44.68816,117.765281 44.7069,117.783091 0.0187,0.01781 119.90847,38.618195 119.90913,38.644042 6.6e-4,0.02585 -117.76528,44.688156 -117.78309,44.706896 -0.0178,0.0187 -38.61819,119.90847 -38.64404,119.90913 z" />
        </g>
        <circle
           r="189"
           cy="339.36218"
           cx="71"
           id="path2167"
           style="fill:none;stroke:#121217;stroke-width:5.86229992"
           transform="matrix(0.86332,0,0,0.86332,137.7,56.383)" />
      </g>
      <g
         id="g5165"
         inkscape:export-ydpi="149.98282"
         inkscape:export-xdpi="149.98282"
         inkscape:export-filename="C:\Users\Walter\Pictures\g4160.png"
         transform="translate(171.17,12)">
        <path
           id="path2160"
           style="fill:url(#radialGradient3506);stroke:#121217;stroke-width:2.70000005"
           sodipodi:type="star"
           sodipodi:sides="4"
           sodipodi:r1="301.08649"
           sodipodi:r2="63.384228"
           sodipodi:arg1="1.5743009"
           sodipodi:arg2="2.3596991"
           inkscape:randomized="0"
           sodipodi:cy="355.21933"
           sodipodi:cx="194.28571"
           inkscape:rounded="0.00020522979"
           inkscape:flatsided="false"
           d="m 193.23053,656.30397 c -0.0534,-1.9e-4 -43.88342,-256.38469 -43.92104,-256.42257 -0.0376,-0.0379 -256.10861,-45.66386 -256.10842,-45.71725 1.8e-4,-0.0534 256.38468,-43.88342 256.42257,-43.92104 0.0379,-0.0376 45.66385,-256.108605 45.71724,-256.108418 0.0534,1.87e-4 43.88342,256.384688 43.92104,256.422568 0.0376,0.0379 256.10861,45.66386 256.10842,45.71725 -1.8e-4,0.0534 -256.38468,43.88341 -256.42257,43.92104 -0.0379,0.0376 -45.66385,256.1086 -45.71724,256.10842 z" />
        <path
           id="path4176"
           sodipodi:rx="47"
           sodipodi:ry="47"
           style="fill:#ffffff;fill-opacity:0.65262996"
           sodipodi:type="arc"
           d="m -1096.4478,119.52242 a 47,47 0 0 1 19.0512,-63.480829 47,47 0 0 1 63.5886,18.688311 47,47 0 0 1 -18.3248,63.694318 47,47 0 0 1 -63.798,-17.96066"
           sodipodi:open="true"
           transform="matrix(1.2553,0,0,1.2553,1517.3,229.14)"
           sodipodi:cy="97.362183"
           sodipodi:cx="-1055"
           sodipodi:end="2.62776"
           sodipodi:start="2.6506081" />
      </g>
      <path
         inkscape:connector-curvature="0"
         id="text4170"
         style="fill:#ffffff;stroke:#000000;stroke-width:3"
         d="m 316.17,98.785 h 29.74 l 38.81,57.025 V 98.785 h 30.03 v 103.08 h -30.03 l -38.6,-56.6 v 56.6 h -29.95 z" />
      <path
         inkscape:connector-curvature="0"
         id="text5147"
         style="fill:#ffffff;stroke:#000000;stroke-width:3"
         d="m 85.023,315.68 h 30.237 l 10.9,57.59 15.89,-57.59 h 30.16 l 15.96,57.59 10.9,-57.59 h 30.09 l -22.71,103.08 h -31.22 l -18.07,-64.9 -18,64.9 h -31.22 z" />
      <path
         inkscape:connector-curvature="0"
         id="text5151"
         style="fill:#ffffff;stroke:#0c0000;stroke-width:3"
         d="m 316.99,599.55 30.31,-1.9 c 0.65,4.93 1.99,8.68 4,11.25 3.29,4.18 7.97,6.26 14.07,6.26 4.54,0 8.05,-1.06 10.51,-3.2 2.46,-2.13 3.69,-4.6 3.69,-7.42 0,-2.67 -1.17,-5.06 -3.52,-7.17 -2.34,-2.11 -7.78,-4.1 -16.31,-5.97 -13.97,-3.14 -23.93,-7.32 -29.88,-12.52 -6,-5.2 -9,-11.84 -9,-19.9 0,-5.29 1.53,-10.3 4.6,-15.01 3.08,-4.71 7.69,-8.41 13.86,-11.11 6.16,-2.69 14.61,-4.04 25.34,-4.04 13.18,0 23.22,2.45 30.13,7.35 6.92,4.89 11.03,12.69 12.34,23.37 l -30.02,1.76 c -0.8,-4.64 -2.47,-8.01 -5.03,-10.12 -2.55,-2.11 -6.08,-3.17 -10.58,-3.17 -3.7,0 -6.49,0.79 -8.37,2.36 -1.87,1.57 -2.81,3.48 -2.81,5.73 0,1.64 0.77,3.12 2.32,4.43 1.5,1.36 5.06,2.62 10.69,3.8 13.92,3 23.89,6.03 29.92,9.1 6.02,3.07 10.4,6.88 13.14,11.43 2.75,4.54 4.12,9.63 4.12,15.25 0,6.61 -1.83,12.71 -5.49,18.29 -3.65,5.57 -8.76,9.8 -15.32,12.69 -6.57,2.88 -14.84,4.32 -24.82,4.32 -17.54,0 -29.68,-3.37 -36.43,-10.12 -6.75,-6.75 -10.57,-15.33 -11.46,-25.74 z" />
      <path
         inkscape:connector-curvature="0"
         id="text5155"
         style="fill:#ffffff;stroke:#000000;stroke-width:3"
         d="m 544.99,315.68 h 85.36 v 22.01 h -53.44 v 16.38 h 49.57 v 21.02 h -49.57 v 20.32 h 54.98 v 23.35 h -86.9 z" />
    </g>
  </g>
</svg>
